<svg xmlns="http://www.w3.org/2000/svg" width="700" height="500"><rect width="700" height="500" x="0" y="0" fill="#FFFFFF" id="background"/><g id="viz"><g transform="translate(0,0)"><g transform="translate(10,20)"><g><path fill="#9467bd" d="M0,277.20201717825415L2.4621550304545363,276.79200092339374C4.924310060909073,276.38198466853333,9.848620121818145,275.5619521588125,14.772930182727217,275.3190864031278C19.69724024363629,275.0762206474431,24.621550304545362,275.41052164579446,29.545860365454434,275.6976618926042C34.4701704263635,275.9848021394139,39.39448048727258,276.22478163468196,44.325536178402075,277.89680461079655C49.256591869531576,279.56882758691114,54.19439319088149,282.67289404387225,59.12544888201099,283.2947482246445C64.05650457314049,283.9166024054167,68.98081463404957,282.05624431,73.90512469495864,279.20411083013886C78.82943475586771,276.35197735027776,83.75374481677679,272.5080684859722,88.67805487768585,270.17800236176384C93.60236493859493,267.8479362375556,98.52667499950401,267.0317128534445,103.45773069063351,266.0785031390695C108.388786381763,265.12529342469446,113.3265877031129,264.03509738005556,118.2576433942424,261.1652557438569C123.18869908537188,258.29541410765836,128.11300914628097,253.6459268799,133.03731920719005,248.52223854095348C137.96162926809913,243.39855020200696,142.8859393290082,237.80066075187224,147.8102493899173,217.26529732680697C152.73455945082634,196.7299339017417,157.65886951173542,161.25709650174588,162.58992520286492,144.00098597183128C167.52098089399442,126.74487544191668,172.4587822153443,127.7054917820833,177.38983790647384,127.45140961850693C182.32089359760334,127.19732745493052,187.2452036585124,125.7285467876111,192.16951371942147,122.2841113151639C197.09382378033055,118.8396758427167,202.01813384123963,113.4195855651417,206.9424439021487,108.9533491442271C211.86675396305773,104.48711272331252,216.7910640239668,100.97473015905835,221.72183864717047,99.13906920488056C226.6526132703741,97.30340825070277,231.58985245587235,97.14446890660138,236.52062707907598,95.17370557264722C241.45140170227964,93.20294223869307,246.37571176318872,89.42035491488612,251.3000218240978,113.98856713496112C256.22433188500685,138.55677935503613,261.1486419459159,191.47579111899304,266.072952006825,220.20653561881457C270.9972620677341,248.9372801186361,275.92157212864316,253.47975735432223,280.85262781977264,259.41655420754165C285.78368351090216,265.3533510607611,290.7214848322521,272.68446753151386,295.6528215913074,281.3836070251201C300.5841583503627,290.0827465187264,305.50903054712353,300.1499090351861,310.4336216759584,309.31555629372434C315.35821280479337,318.48120355226257,320.28252286570245,326.74533555287917,325.2068329266115,333.092061466266C330.1311429875206,339.43878737965275,335.0554530484296,343.86810720580974,339.98650873955916,346.73977581902983C344.9175644306886,349.61144443225,349.8553657520386,350.9254618325333,354.78642144316814,354.7931519720992C359.71747713429755,358.66084211166526,364.6417871952067,365.08220499051384,369.5660972561157,372.5445392281986C374.4904073170248,380.0068734658833,379.41471737793387,388.5101790624041,384.33902743884295,393.9752135912111C389.263337499752,399.44024812001817,394.1876475606611,401.8670115811114,399.1187032517906,401.9001450037501C404.04975894292005,401.93327842638877,408.9875602642699,399.5727818105729,413.9186159553995,397.8342601681047C418.849671646529,396.0957385256367,423.77398170743805,394.97919185651625,428.69829176834713,392.246749645022C433.6226018292562,389.5143074335278,438.5469118901653,385.1659696796598,443.4712219510743,384.2427029277514C448.39553201198333,383.31943617584307,453.31984207289247,385.8212404258945,458.250897764022,386.32640229442615C463.1819534551514,386.83156416295793,468.1197547765014,385.34008364997,473.0508104676308,382.75680217814005C477.98186615876034,380.17352070631,482.9061762196695,376.4984382756379,487.8304862805785,371.8254055500067C492.75479634148763,367.1523728243753,497.6791064023967,361.4813898037847,502.6031353953799,354.32005504863986C507.52716438836313,347.158720293495,512.4509123134205,338.5070338037958,517.3816869366241,332.44384108598496C522.3124615598277,326.38064836817404,527.2502628811777,322.90594942225135,532.181599640233,319.39773499924456C537.1129363992883,315.88952057623777,542.0378085960491,312.34779067614676,546.9623997248841,310.39613116837273C551.886990853719,308.4444716605986,556.8113009146281,308.0828825451414,561.7356109755372,307.4262858921672C566.6599210364462,306.7696892391929,571.5842310973553,305.8180850487017,576.5152867884848,305.1960904647888C581.4463424796144,304.574095880876,586.3841438009641,304.2817109035415,591.3151994920937,303.3515129888278C596.2462551832232,302.42131507411403,601.1705652441323,300.853304222021,606.0948753050413,300.08337948395103C611.0191853659504,299.3134547458811,615.9434954268595,299.3416161218343,620.8678054877686,300.68817590595074C625.7921155486777,302.03473569006707,630.7164256095867,304.6996938823467,635.6474813007162,307.79210339335805C640.5785369918457,310.88451290436944,645.5163383131957,314.40437373411265,650.4473940043251,317.5216990956613C655.3784496954546,320.63902445720987,660.3027597563637,323.3538143505639,665.2270698172728,326.4474401414323C670.1513798781818,329.5410659323008,675.0756899390909,333.01352762068376,677.5378449695455,334.7497584648752L680,336.48598930906667L680,336.48598930906667L677.5378449695455,334.7497584648752C675.0756899390909,333.01352762068376,670.1513798781818,329.5410659323008,665.2270698172728,326.4474401414323C660.3027597563637,323.3538143505639,655.3784496954546,320.63902445720987,650.4473940043251,317.5216990956613C645.5163383131957,314.40437373411265,640.5785369918457,310.88451290436944,635.6474813007163,307.79210339335805C630.7164256095867,304.6996938823467,625.7921155486777,302.03473569006707,620.8678054877686,300.6881759059507C615.9434954268595,299.3416161218343,611.0191853659504,299.3134547458811,606.0948753050413,300.08337948395103C601.1705652441323,300.853304222021,596.2462551832232,302.42131507411403,591.3151994920937,303.3515129888278C586.3841438009641,304.2817109035415,581.4463424796144,304.574095880876,576.5152867884848,305.1960904647888C571.5842310973553,305.8180850487017,566.6599210364462,306.7696892391929,561.7356109755372,307.4262858921672C556.8113009146281,308.0828825451414,551.886990853719,308.4444716605986,546.962399724884,310.3961311683727C542.0378085960491,312.34779067614676,537.1129363992883,315.88952057623777,532.181599640233,319.4011488572714C527.2502628811777,322.912777138305,522.3124615598277,326.39430380028125,517.3816869366241,332.4693153615562C512.4509123134205,338.5443269228311,507.52716438836313,347.21282338340467,502.6031353953799,354.38573298939497C497.6791064023967,361.55864259538527,492.75479634148763,367.2359653467922,487.83048628057855,371.9519592355748C482.9061762196695,376.6679531243574,477.98186615876034,380.4226181505156,473.0508104676308,383.09337446760395C468.1197547765014,385.7641307846922,463.1819534551514,387.35097839271066,458.250897764022,387.27083724152203C453.31984207289247,387.19069609033335,448.39553201198333,385.44356617993753,443.4712219510743,387.2167868379236C438.5469118901653,388.99000749590977,433.6226018292562,394.2835787222778,428.69829176834713,398.2120094197165C423.77398170743805,402.14044011715515,418.849671646529,404.70373028566445,413.91861595539945,408.48054133047964C408.9875602642699,412.25735237529483,404.04975894292005,417.2476842964159,399.1187032517905,420.97808002926473C394.1876475606611,424.70847576211355,389.263337499752,427.1789353066901,384.33902743884295,426.3103207786471C379.41471737793387,425.4417062506041,374.4904073170248,421.2340176499417,369.5660972561157,416.7597100088389C364.6417871952067,412.28540236773614,359.71747713429755,407.54447568619304,354.7864214431681,406.9922864200715C349.8553657520386,406.44009715395003,344.9175644306886,410.07664530325,339.98650873955916,412.38846390341877C335.0554530484296,414.7002825035875,330.1311429875206,415.68737155462503,325.2068329266115,416.3548765921549C320.28252286570245,417.0223816296848,315.35821280479337,417.37030265370703,310.4336216759584,412.7603368564882C305.50903054712353,408.15037105926945,300.5841583503627,398.58251844080974,295.6528215913074,391.8457147189395C290.7214848322521,385.1089109970694,285.78368351090216,381.20315617178886,280.85262781977264,376.58748717019444C275.92157212864316,371.9718181686,270.9972620677341,366.64623499069165,266.072952006825,341.345165009134C261.1486419459159,316.04409502757636,256.22433188500685,270.7675382423694,251.3000218240978,250.02927524232223C246.37571176318872,229.291012242275,241.45140170227964,233.0910430273875,236.520627079076,235.51748855728613C231.58985245587235,237.94393408718474,226.6526132703741,238.99679436186946,221.72183864717044,238.8952564732889C216.7910640239668,238.79371858470836,211.86675396305773,237.5377825328625,206.9424439021487,236.86443919751318C202.01813384123963,236.1910958621639,197.09382378033055,236.10034524331112,192.1695137194215,236.46763089448885C187.2452036585124,236.83491654566663,182.32089359760334,237.66023846687497,177.38983790647384,238.02744756156247C172.4587822153443,238.39465665624996,167.52098089399442,238.30375292441667,162.58992520286492,252.10531201947015C157.65886951173542,265.9068711145236,152.73455945082634,293.6008930364639,147.81024938991726,307.41988764094026C142.8859393290082,321.2388822454166,137.96162926809913,321.18284953242915,133.03731920719005,323.81858664866735C128.11300914628097,326.4543237649056,123.18869908537188,331.78183071036943,118.25764339424241,334.84052930729587C113.3265877031129,337.89922790422224,108.388786381763,338.6891181526111,103.45773069063351,341.5105301778888C98.52667499950401,344.33194220316665,93.60236493859493,349.18487600533336,88.67805487768585,356.8129172357917C83.75374481677679,364.44095846625004,78.82943475586771,374.844107125,73.90512469495864,377.760583025C68.98081463404957,380.677058925,64.05650457314049,376.10686206624996,59.12544888201098,369.87503059952223C54.19439319088149,363.64319913279445,49.256591869531576,355.7497330580889,44.325536178402075,350.28896131059236C39.39448048727258,344.8281895630958,34.4701704263635,341.8001121428083,29.54586036545443,340.3770315954514C24.621550304545362,338.95395104809444,19.69724024363629,339.1358673736681,14.772930182727217,339.5536035834C9.848620121818145,339.9713397931319,4.924310060909073,340.6248958870222,2.4621550304545363,340.95167393396736L0,341.2784519809125Z"><title>Tape</title></path><path fill="#1f77b4" d="M0,341.2784519809125L2.4621550304545363,340.95167393396736C4.924310060909073,340.6248958870222,9.848620121818145,339.9713397931319,14.772930182727217,339.5536035834C19.69724024363629,339.1358673736681,24.621550304545362,338.95395104809444,29.545860365454434,340.37703159545134C34.4701704263635,341.8001121428083,39.39448048727258,344.8281895630958,44.325536178402075,350.2889613105924C49.256591869531576,355.7497330580889,54.19439319088149,363.64319913279445,59.12544888201099,369.87503059952223C64.05650457314049,376.10686206624996,68.98081463404957,380.677058925,73.90512469495864,377.76058302499996C78.82943475586771,374.844107125,83.75374481677679,364.44095846625004,88.67805487768585,356.8129172357917C93.60236493859493,349.18487600533336,98.52667499950401,344.33194220316665,103.45773069063351,341.51053017788894C108.388786381763,338.6891181526111,113.3265877031129,337.89922790422224,118.2576433942424,335.0071959739625C123.18869908537188,332.1151640437028,128.11300914628097,327.12099043157224,133.03731920719005,324.6519199820007C137.96162926809913,322.18284953242915,142.8859393290082,322.2388822454166,147.8102493899173,323.1084036706903C152.73455945082634,323.9779250959639,157.65886951173542,325.66093523352356,162.58992520286492,323.87779999142845C167.52098089399442,322.0946647493333,172.4587822153443,316.84538412758326,177.38983790647384,310.98081172138194C182.32089359760334,305.1162393151805,187.2452036585124,298.6363751245278,192.16951371942147,286.25066562039166C197.09382378033055,273.86495611625554,202.01813384123963,255.5734012986361,206.9424439021487,247.05559191574932C211.86675396305773,238.5377825328625,216.7910640239668,239.79371858470836,221.72183864717047,239.89525647328892C226.6526132703741,239.99679436186946,231.58985245587235,238.94393408718474,236.52062707907598,236.51748855728613C241.45140170227964,234.0910430273875,246.37571176318872,230.291012242275,251.3000218240978,204.98812851162361C256.22433188500685,179.6852447809722,261.1486419459159,132.87950810478193,266.072952006825,106.70012813600624C270.9972620677341,80.52074816723056,275.92157212864316,74.96772490586945,280.85262781977264,70.06484759401249C285.78368351090216,65.16197028215555,290.7214848322521,60.90923891980277,295.6528215913074,53.92204040186319C300.5841583503627,46.93484188392362,305.50903054712353,37.21317621039725,310.4336216759584,32.59270752358545C315.35821280479337,27.972238836773652,320.28252286570245,28.45296713667642,325.2068329266115,29.084465232095166C330.1311429875206,29.715963327513908,335.0554530484296,30.49823121844862,339.98650873955916,32.376648594404855C344.9175644306886,34.255065970361095,349.8553657520386,37.22963283133885,354.78642144316814,35.50080307458537C359.71747713429755,33.77197331783189,364.6417871952067,27.339746943347183,369.5660972561157,22.72489178324025C374.4904073170248,18.110036623133315,379.41471737793387,15.312552677404147,384.33902743884295,15.695244793780617C389.263337499752,16.07793691015709,394.1876475606611,19.640805088639194,399.1187032517906,23.693558297930654C404.04975894292005,27.746311507222117,408.9875602642699,32.288949747322924,413.9186159553995,37.619379341502025C418.849671646529,42.94980893568112,423.77398170743805,49.0680298839385,428.69829176834713,54.121616424448426C433.6226018292562,59.17520296495835,438.5469118901653,63.16415509772082,443.4712219510743,64.78031113090428C448.39553201198333,66.39646716408775,453.31984207289247,65.6398270976922,458.250897764022,66.25142869649936C463.1819534551514,66.86303029530653,468.1197547765014,68.84287355931639,473.0508104676308,71.71012770440039C477.98186615876034,74.57738184948441,482.9061762196695,78.33204687564258,487.8304862805785,83.04804076442515C492.75479634148763,87.76403465320773,497.6791064023967,93.44135740461472,502.6031353953799,100.61426701060499C507.52716438836313,107.78717661659527,512.4509123134205,116.4556730771689,517.3816869366241,122.69735130511049C522.3124615598277,128.9390295330521,527.2502628811777,132.75388952836167,532.181599640233,136.43218447606193C537.1129363992883,140.1104794237622,542.0378085960491,143.65220932385319,546.9623997248841,145.6038688316273C551.886990853719,147.55552833940138,556.8113009146281,147.9171174548586,561.7356109755372,159.4693171599467C566.6599210364462,171.02151686503484,571.5842310973553,193.76432715975386,576.5152867884848,204.79074572824587C581.4463424796144,215.8171642967379,586.3841438009641,215.1271911390029,591.3151994920937,220.60707606149583C596.2462551832232,226.08696098398875,601.1705652441323,237.73670398670959,606.0948753050413,244.4302174277973C611.0191853659504,251.123730868885,615.9434954268595,252.86101474833956,620.8678054877686,256.16756277164137C625.7921155486777,259.47411079494316,630.7164256095867,264.3499229620922,635.6474813007162,268.8075949197016C640.5785369918457,273.2652668773111,645.5163383131957,277.30479862538095,650.4473940043251,281.7545334407161C655.3784496954546,286.20426825605125,660.3027597563637,291.0642061386517,665.2270698172728,295.3654530180482C670.1513798781818,299.66669989744474,675.0756899390909,303.4092557736374,677.5378449695455,305.28053371173377L680,307.15181164983005L680,318.9417029036717L677.5378449695455,317.3801255148972C675.0756899390909,315.8185481261226,670.1513798781818,312.6953933485736,665.2270698172728,309.95967658370836C660.3027597563637,307.22395981884307,655.3784496954546,304.87568106666157,650.4473940043251,302.00396729958265C645.5163383131957,299.13225353250374,640.5785369918457,295.7371047505275,635.6474813007163,292.7356084961861C630.7164256095867,289.73411224184474,625.7921155486777,287.1262685151382,620.8678054877686,286.10975671958874C615.9434954268595,285.0932449240393,611.0191853659504,285.66806505964695,606.0948753050413,281.50532663024245C601.1705652441323,277.34258820083795,596.2462551832232,268.44229120642126,591.3151994920937,265.6774209764936C586.3841438009641,262.91255074656596,581.4463424796144,266.28310728112734,576.5152867884848,259.01503654331765C571.5842310973553,251.74696580550804,566.6599210364462,233.84026779532738,561.7356109755372,226.14181437048174C556.8113009146281,218.4433609456361,551.886990853719,220.95315210612557,546.962399724884,224.1870772200609C542.0378085960491,227.42100233399626,537.1129363992883,231.3790614013775,532.181599640233,235.76790232502265C527.2502628811777,240.15674324866777,522.3124615598277,244.9763660285768,517.3816869366241,251.69472759841088C512.4509123134205,258.413089168245,507.52716438836313,267.0301895280042,502.6031353953799,277.1005416849239C497.6791064023967,287.17089384184357,492.75479634148763,298.69449779592384,487.83048628057855,308.63657487831216C482.9061762196695,318.57865196070037,477.98186615876034,326.93920217139663,473.0508104676308,335.6739704362649C468.1197547765014,344.408738701133,463.1819534551514,353.5177250201732,458.250897764022,358.9602450431897C453.31984207289247,364.4027650662061,448.39553201198333,366.1788187931989,443.4712219510743,369.70365392000014C438.5469118901653,373.2284890468015,433.6226018292562,378.50210557341114,428.69829176834713,383.2116743525053C423.77398170743805,387.92124313159957,418.849671646529,392.06676416317833,413.91861595539945,395.31977298687565C408.9875602642699,398.5727818105729,404.04975894292005,400.93327842638877,399.1187032517905,400.9001450037501C394.1876475606611,400.8670115811114,389.263337499752,398.44024812001817,384.33902743884295,392.9752135912111C379.41471737793387,387.5101790624041,374.4904073170248,379.0068734658833,369.5660972561157,371.5445392281986C364.6417871952067,364.08220499051384,359.71747713429755,357.66084211166526,354.7864214431681,353.79315197209934C349.8553657520386,349.9254618325333,344.9175644306886,348.61144443225,339.98650873955916,345.73977581902983C335.0554530484296,342.86810720580974,330.1311429875206,338.43878737965275,325.2068329266115,332.092061466266C320.28252286570245,325.74533555287917,315.35821280479337,317.48120355226257,310.4336216759584,308.31555629372434C305.50903054712353,299.1499090351861,300.5841583503627,289.0827465187264,295.6528215913074,280.3836070251201C290.7214848322521,271.68446753151386,285.78368351090216,264.3533510607611,280.85262781977264,258.41655420754165C275.92157212864316,252.47975735432223,270.9972620677341,247.9372801186361,266.072952006825,264.45363442102433C261.1486419459159,280.96998872341254,256.22433188500685,318.54517456387504,251.3000218240978,334.67085595838336C246.37571176318872,350.7965373528917,241.45140170227964,345.4727143014459,236.520627079076,340.78950738292224C231.58985245587235,336.10630046439866,226.6526132703741,332.06370967879724,221.72183864717044,326.3757565142444C216.7910640239668,320.6878033496917,211.86675396305773,313.3544878061875,206.9424439021487,314.3076736372729C202.01813384123963,315.2608594683583,197.09382378033055,324.5005466740333,192.1695137194215,328.38599994321106C187.2452036585124,332.27145321238885,182.32089359760334,330.80267254506947,177.38983790647384,330.54859038149306C172.4587822153443,330.2945082179167,167.52098089399442,331.25512455808337,162.58992520286492,330.22299519033544C157.65886951173542,329.1908658225875,152.73455945082634,326.165990746925,147.81024938991726,324.48450340045696C142.8859393290082,322.80301605398887,137.96162926809913,322.46491643671527,133.03731920719005,324.7929534341437C128.11300914628097,327.12099043157224,123.18869908537188,332.1151640437028,118.25764339424241,335.00719597396255C113.3265877031129,337.89922790422224,108.388786381763,338.6891181526111,103.45773069063351,341.5105301778888C98.52667499950401,344.33194220316665,93.60236493859493,349.18487600533336,88.67805487768585,356.8129172357917C83.75374481677679,364.44095846625004,78.82943475586771,374.844107125,73.90512469495864,377.760583025C68.98081463404957,380.677058925,64.05650457314049,376.10686206624996,59.12544888201098,369.87503059952223C54.19439319088149,363.64319913279445,49.256591869531576,355.7497330580889,44.325536178402075,350.28896131059236C39.39448048727258,344.8281895630958,34.4701704263635,341.8001121428083,29.54586036545443,340.3770315954514C24.621550304545362,338.95395104809444,19.69724024363629,339.1358673736681,14.772930182727217,339.5536035834C9.848620121818145,339.9713397931319,4.924310060909073,340.6248958870222,2.4621550304545363,340.95167393396736L0,341.2784519809125Z"><title>Disc</title></path><path fill="#ff7f0e" d="M0,341.2784519809125L2.4621550304545363,340.95167393396736C4.924310060909073,340.6248958870222,9.848620121818145,339.9713397931319,14.772930182727217,339.5536035834C19.69724024363629,339.1358673736681,24.621550304545362,338.95395104809444,29.545860365454434,340.37703159545134C34.4701704263635,341.8001121428083,39.39448048727258,344.8281895630958,44.325536178402075,350.2889613105924C49.256591869531576,355.7497330580889,54.19439319088149,363.64319913279445,59.12544888201099,369.87503059952223C64.05650457314049,376.10686206624996,68.98081463404957,380.677058925,73.90512469495864,377.76058302499996C78.82943475586771,374.844107125,83.75374481677679,364.44095846625004,88.67805487768585,356.8129172357917C93.60236493859493,349.18487600533336,98.52667499950401,344.33194220316665,103.45773069063351,341.51053017788894C108.388786381763,338.6891181526111,113.3265877031129,337.89922790422224,118.2576433942424,334.84052930729587C123.18869908537188,331.78183071036943,128.11300914628097,326.4543237649056,133.03731920719005,324.1262867674771C137.96162926809913,321.7982497700486,142.8859393290082,322.46968272065556,147.8102493899173,324.3178367337903C152.73455945082634,326.165990746925,157.65886951173542,329.1908658225875,162.58992520286492,330.22299519033544C167.52098089399442,331.25512455808337,172.4587822153443,330.2945082179167,177.38983790647384,330.54859038149306C182.32089359760334,330.80267254506947,187.2452036585124,332.27145321238885,192.16951371942147,335.71588868483605C197.09382378033055,339.1603241572833,202.01813384123963,344.5804144348583,206.9424439021487,348.8799841891062C211.86675396305773,353.17955394335416,216.7910640239668,356.358603174275,221.72183864717047,358.0275974617862C226.6526132703741,359.6965917492973,231.58985245587235,359.8555310933986,236.52062707907598,361.8262944273528C241.45140170227964,363.7970577613069,246.37571176318872,367.57964508511395,251.3000218240978,369.3982714407653C256.22433188500685,371.21689779641673,261.1486419459159,371.07156318391253,266.072952006825,373.77540750834095C270.9972620677341,376.4792518327694,275.92157212864316,382.0322750941305,280.85262781977264,386.9351524059875C285.78368351090216,391.8380297178444,290.7214848322521,396.0907610801972,295.6528215913074,403.07795959813683C300.5841583503627,410.0651581160764,305.50903054712353,419.7868237896028,310.4336216759584,424.4072924764146C315.35821280479337,429.0277611632264,320.28252286570245,428.5470328633237,325.2068329266115,427.91553476790483C330.1311429875206,427.28403667248614,335.0554530484296,426.5017687815514,339.98650873955916,424.6233514055951C344.9175644306886,422.7449340296389,349.8553657520386,419.7703671686611,354.78642144316814,421.49919692541465C359.71747713429755,423.2280266821681,364.6417871952067,429.66025305665283,369.5660972561157,434.27510821675975C374.4904073170248,438.88996337686666,379.41471737793387,441.6874473225958,384.33902743884295,441.30475520621934C389.263337499752,440.9220630898429,394.1876475606611,437.3591949113609,399.1187032517906,433.3064417020694C404.04975894292005,429.25368849277794,408.9875602642699,424.71105025267707,413.9186159553995,419.380620658498C418.849671646529,414.0501910643188,423.77398170743805,407.93197011606156,428.69829176834713,402.54505024221834C433.6226018292562,397.158130368375,438.5469118901653,392.50251156894586,443.4712219510743,388.95791594655833C448.39553201198333,385.41332032417085,453.31984207289247,382.97974787882504,458.250897764022,374.3885578142544C463.1819534551514,365.7973677496837,468.1197547765014,351.04856006588835,473.0508104676308,339.4938811186425C477.98186615876034,327.93920217139663,482.9061762196695,319.57865196070037,487.8304862805785,309.6365748783121C492.75479634148763,299.69449779592384,497.6791064023967,288.17089384184357,502.6031353953799,278.1005416849239C507.52716438836313,268.0301895280042,512.4509123134205,259.413089168245,517.3816869366241,252.69472759841088C522.3124615598277,245.9763660285768,527.2502628811777,241.15674324866777,532.181599640233,236.76790232502265C537.1129363992883,232.3790614013775,542.0378085960491,228.42100233399626,546.9623997248841,225.18707722006093C551.886990853719,221.95315210612557,556.8113009146281,219.4433609456361,561.7356109755372,207.2217902581652C566.6599210364462,195.0002195706943,571.5842310973553,173.06686935624194,576.5152867884848,162.246386737683C581.4463424796144,151.42590411912403,586.3841438009641,151.71828909645848,591.3151994920937,152.64848701117222C596.2462551832232,153.578684925886,601.1705652441323,155.14669577797903,606.0948753050413,164.1161711136323C611.0191853659504,173.08564644928552,615.9434954268595,189.45658626849902,620.8678054877686,201.7585519529854C625.7921155486777,214.06051763747178,630.7164256095867,222.29350918723108,635.6474813007162,230.04114251165024C640.5785369918457,237.78877583606945,645.5163383131957,245.05105093514848,650.4473940043251,252.41100453095544C655.3784496954546,259.77095812676237,660.3027597563637,267.22859021929725,665.2270698172728,273.4731681234565C670.1513798781818,279.7177460276159,675.0756899390909,284.74926974339957,677.5378449695455,287.26503160129147L680,289.78079345918337L680,306.15181164983005L677.5378449695455,304.28053371173377C675.0756899390909,302.4092557736374,670.1513798781818,298.66669989744474,665.2270698172728,294.3654530180482C660.3027597563637,290.0642061386517,655.3784496954546,285.20426825605125,650.4473940043251,280.7545334407161C645.5163383131957,276.30479862538095,640.5785369918457,272.2652668773111,635.6474813007163,267.8075949197016C630.7164256095867,263.3499229620922,625.7921155486777,258.47411079494316,620.8678054877686,248.69658632103025C615.9434954268595,238.91906184711732,611.0191853659504,224.23982506644052,606.0948753050413,217.5463116253528C601.1705652441323,210.8527981842651,596.2462551832232,212.1450080827665,591.3151994920937,213.1360996108847C586.3841438009641,214.1271911390029,581.4463424796144,214.8171642967379,576.5152867884848,225.93540398114547C571.5842310973553,237.05364366555304,566.6599210364462,258.6001498766332,561.7356109755372,270.180337482925C556.8113009146281,281.76052508921674,551.886990853719,283.37439409072005,546.962399724884,286.1986774751345C542.0378085960491,289.0229608595491,537.1129363992883,293.0576586268747,532.181599640233,297.5470365538296C527.2502628811777,302.03641448078446,522.3124615598277,306.9804725673685,517.3816869366241,312.9980951846498C512.4509123134205,319.01571780193115,507.52716438836313,326.10690494990973,502.6031353953799,332.6733207553878C497.6791064023967,339.2397365608658,492.75479634148763,345.2813810238433,487.83048628057855,349.66345113074823C482.9061762196695,354.0455212376532,477.98186615876034,356.7680169884855,473.0508104676308,362.4318779367911C468.1197547765014,368.09573888509664,463.1819534551514,376.70096503087547,458.250897764022,381.4270283692419C453.31984207289247,386.1530917076084,448.39553201198333,386.9999922385625,443.4712219510743,389.75125190375417C438.5469118901653,392.50251156894586,433.6226018292562,397.158130368375,428.69829176834713,402.5450502422182C423.77398170743805,407.93197011606156,418.849671646529,414.0501910643188,413.91861595539945,419.38062065849795C408.9875602642699,424.71105025267707,404.04975894292005,429.25368849277794,399.1187032517905,433.3064417020694C394.1876475606611,437.3591949113609,389.263337499752,440.9220630898429,384.33902743884295,441.3047552062194C379.41471737793387,441.6874473225958,374.4904073170248,438.88996337686666,369.5660972561157,434.2751082167597C364.6417871952067,429.66025305665283,359.71747713429755,423.2280266821681,354.7864214431681,421.49919692541454C349.8553657520386,419.7703671686611,344.9175644306886,422.7449340296389,339.98650873955916,424.6233514055952C335.0554530484296,426.5017687815514,330.1311429875206,427.28403667248614,325.2068329266115,427.91553476790483C320.28252286570245,428.5470328633237,315.35821280479337,429.0277611632264,310.4336216759584,424.4072924764146C305.50903054712353,419.7868237896028,300.5841583503627,410.0651581160764,295.6528215913074,403.07795959813683C290.7214848322521,396.0907610801972,285.78368351090216,391.8380297178444,280.85262781977264,386.9351524059875C275.92157212864316,382.0322750941305,270.9972620677341,376.4792518327694,266.072952006825,373.775407508341C261.1486419459159,371.07156318391253,256.22433188500685,371.21689779641673,251.3000218240978,369.39827144076526C246.37571176318872,367.57964508511395,241.45140170227964,363.7970577613069,236.520627079076,361.8262944273528C231.58985245587235,359.8555310933986,226.6526132703741,359.6965917492973,221.72183864717044,358.0275974617861C216.7910640239668,356.358603174275,211.86675396305773,353.17955394335416,206.9424439021487,348.8799841891062C202.01813384123963,344.5804144348583,197.09382378033055,339.1603241572833,192.1695137194215,335.71588868483605C187.2452036585124,332.27145321238885,182.32089359760334,330.80267254506947,177.38983790647384,330.54859038149306C172.4587822153443,330.2945082179167,167.52098089399442,331.25512455808337,162.58992520286492,330.22299519033544C157.65886951173542,329.1908658225875,152.73455945082634,326.165990746925,147.81024938991726,324.3178367337903C142.8859393290082,322.46968272065556,137.96162926809913,321.7982497700486,133.03731920719005,324.1262867674771C128.11300914628097,326.4543237649056,123.18869908537188,331.78183071036943,118.25764339424241,334.84052930729587C113.3265877031129,337.89922790422224,108.388786381763,338.6891181526111,103.45773069063351,341.5105301778888C98.52667499950401,344.33194220316665,93.60236493859493,349.18487600533336,88.67805487768585,356.8129172357917C83.75374481677679,364.44095846625004,78.82943475586771,374.844107125,73.90512469495864,377.760583025C68.98081463404957,380.677058925,64.05650457314049,376.10686206624996,59.12544888201098,369.87503059952223C54.19439319088149,363.64319913279445,49.256591869531576,355.7497330580889,44.325536178402075,350.28896131059236C39.39448048727258,344.8281895630958,34.4701704263635,341.8001121428083,29.54586036545443,340.3770315954514C24.621550304545362,338.95395104809444,19.69724024363629,339.1358673736681,14.772930182727217,339.5536035834C9.848620121818145,339.9713397931319,4.924310060909073,340.6248958870222,2.4621550304545363,340.95167393396736L0,341.2784519809125Z"><title>Download</title></path><path fill="#2ca02c" d="M0,341.2784519809125L2.4621550304545363,340.95167393396736C4.924310060909073,340.6248958870222,9.848620121818145,339.9713397931319,14.772930182727217,339.5536035834C19.69724024363629,339.1358673736681,24.621550304545362,338.95395104809444,29.545860365454434,340.37703159545134C34.4701704263635,341.8001121428083,39.39448048727258,344.8281895630958,44.325536178402075,350.2889613105924C49.256591869531576,355.7497330580889,54.19439319088149,363.64319913279445,59.12544888201099,369.87503059952223C64.05650457314049,376.10686206624996,68.98081463404957,380.677058925,73.90512469495864,377.76058302499996C78.82943475586771,374.844107125,83.75374481677679,364.44095846625004,88.67805487768585,356.8129172357917C93.60236493859493,349.18487600533336,98.52667499950401,344.33194220316665,103.45773069063351,341.51053017788894C108.388786381763,338.6891181526111,113.3265877031129,337.89922790422224,118.2576433942424,334.84052930729587C123.18869908537188,331.78183071036943,128.11300914628097,326.4543237649056,133.03731920719005,324.1262867674771C137.96162926809913,321.7982497700486,142.8859393290082,322.46968272065556,147.8102493899173,324.3178367337903C152.73455945082634,326.165990746925,157.65886951173542,329.1908658225875,162.58992520286492,330.22299519033544C167.52098089399442,331.25512455808337,172.4587822153443,330.2945082179167,177.38983790647384,330.54859038149306C182.32089359760334,330.80267254506947,187.2452036585124,332.27145321238885,192.16951371942147,335.71588868483605C197.09382378033055,339.1603241572833,202.01813384123963,344.5804144348583,206.9424439021487,348.8799841891062C211.86675396305773,353.17955394335416,216.7910640239668,356.358603174275,221.72183864717047,357.2675562326195C226.6526132703741,358.1765092909639,231.58985245587235,356.81536617673197,236.52062707907598,357.7095088301583C241.45140170227964,358.60365148358477,246.37571176318872,361.7530799046695,251.3000218240978,362.89748469638334C256.22433188500685,364.04188948809724,261.1486419459159,363.18127065044035,266.072952006825,365.413752820566C270.9972620677341,367.64623499069165,275.92157212864316,372.9718181686,280.85262781977264,377.58748717019444C285.78368351090216,382.20315617178886,290.7214848322521,386.1089109970694,295.6528215913074,392.84571471893963C300.5841583503627,399.58251844080974,305.50903054712353,409.15037105926945,310.4336216759584,413.76033685648827C315.35821280479337,418.37030265370703,320.28252286570245,418.0223816296848,325.2068329266115,417.3548765921549C330.1311429875206,416.68737155462503,335.0554530484296,415.7002825035875,339.98650873955916,413.38846390341877C344.9175644306886,411.07664530325,349.8553657520386,407.44009715395003,354.78642144316814,407.9922864200715C359.71747713429755,408.54447568619304,364.6417871952067,413.28540236773614,369.5660972561157,417.7597100088389C374.4904073170248,422.2340176499417,379.41471737793387,426.4417062506041,384.33902743884295,427.31032077864717C389.263337499752,428.1789353066901,394.1876475606611,425.70847576211355,399.1187032517906,421.97808002926485C404.04975894292005,418.2476842964159,408.9875602642699,413.25735237529483,413.9186159553995,406.84697002237544C418.849671646529,400.43658766945606,423.77398170743805,392.6061548847385,428.69829176834713,386.0541302290748C433.6226018292562,379.50210557341114,438.5469118901653,374.2284890468015,443.4712219510743,370.70365392000014C448.39553201198333,367.1788187931989,453.31984207289247,365.4027650662061,458.250897764022,363.9920384360605C463.1819534551514,362.5813118059148,468.1197547765014,361.5359122726164,473.0508104676308,359.651964630551C477.98186615876034,357.7680169884855,482.9061762196695,355.0455212376532,487.8304862805785,350.66345113074823C492.75479634148763,346.2813810238433,497.6791064023967,340.2397365608658,502.6031353953799,335.0591140555822C507.52716438836313,329.8784915502986,512.4509123134205,325.5588910027089,517.3816869366241,319.54126838542754C522.3124615598277,313.52364576814625,527.2502628811777,305.80800108117336,532.181599640233,301.8283205367879C537.1129363992883,297.84863999240247,542.0378085960491,297.6049235906046,546.9623997248841,297.32032093284283C551.886990853719,297.0357182750811,556.8113009146281,296.7102293613555,561.7356109755372,296.09944519880816C566.6599210364462,295.48866103626074,571.5842310973553,294.5925816248914,576.5152867884848,293.88487040080105C581.4463424796144,293.17715917671075,586.3841438009641,292.6578161398993,591.3151994920937,291.58221330352137C596.2462551832232,290.50661046714345,601.1705652441323,288.87474783119904,606.0948753050413,289.1066122402173C611.0191853659504,289.3384766492356,615.9434954268595,291.43406810321653,620.8678054877686,293.8432941564167C625.7921155486777,296.2525202096169,630.7164256095867,298.97538086203616,635.6474813007162,302.12301720516376C640.5785369918457,305.2706535482914,645.5163383131957,308.8430655821274,650.4473940043251,311.8693910383585C655.3784496954546,314.89571649458964,660.3027597563637,317.37595537321585,665.2270698172728,320.4082223557785C670.1513798781818,323.44048933834114,675.0756899390909,327.02478442484016,677.5378449695455,328.81693196808965L680,330.6090795113392L680,336.48598930906667L677.5378449695455,334.7497584648752C675.0756899390909,333.01352762068376,670.1513798781818,329.5410659323008,665.2270698172728,326.4474401414323C660.3027597563637,323.3538143505639,655.3784496954546,320.63902445720987,650.4473940043251,317.5216990956613C645.5163383131957,314.40437373411265,640.5785369918457,310.88451290436944,635.6474813007163,307.79210339335805C630.7164256095867,304.6996938823467,625.7921155486777,302.03473569006707,620.8678054877686,299.6613249994495C615.9434954268595,297.28791430883183,611.0191853659504,295.2060511198761,606.0948753050413,295.0600737020495C601.1705652441323,294.9140962842229,596.2462551832232,296.70400463752543,591.3151994920937,297.9058121305998C586.3841438009641,299.1076196236743,581.4463424796144,299.7213262565207,576.5152867884848,300.64235170366396C571.5842310973553,301.5633771508072,566.6599210364462,302.79172141224734,561.7356109755372,303.6953226438047C556.8113009146281,304.5989238753619,551.886990853719,305.1777820770364,546.962399724884,305.78370379392305C542.0378085960491,306.3896255108098,537.1129363992883,307.0226107429089,532.181599640233,310.47965531716346C527.2502628811777,313.9366998914181,522.3124615598277,320.2178038078282,517.3816869366241,326.5731461448888C512.4509123134205,332.92848848194944,507.52716438836313,339.35806923966055,502.6031353953799,345.50691535858044C497.6791064023967,351.65576147750033,492.75479634148763,357.52387295762884,487.83048628057855,362.5435742082904C482.9061762196695,367.56327545895186,477.98186615876034,371.73456648014616,473.0508104676308,374.4269316460998C468.1197547765014,377.11929681205334,463.1819534551514,378.3327361227662,458.250897764022,378.98469852684144C453.31984207289247,379.63666093091666,448.39553201198333,379.72714642835416,443.4712219510743,381.94655805400697C438.5469118901653,384.1659696796598,433.6226018292562,388.5143074335278,428.69829176834713,394.80161941768216C423.77398170743805,401.08893140183653,418.849671646529,409.31521761627727,413.91861595539945,415.7147288117174C408.9875602642699,422.1142400071576,404.04975894292005,426.6869761835974,399.1187032517905,430.7182281732583C394.1876475606611,434.74948016291916,389.263337499752,438.2392479658012,384.33902743884295,438.57892640173037C379.41471737793387,438.91860483765964,374.4904073170248,436.10819390663613,369.5660972561157,431.4354031955611C364.6417871952067,426.76261248448617,359.71747713429755,420.2274419933597,354.7864214431681,418.35893736526594C349.8553657520386,416.49043273717217,344.9175644306886,419.28859397211113,339.98650873955916,421.1328371884604C335.0554530484296,422.9770804048098,330.1311429875206,423.8674056025695,325.2068329266115,424.57950074904375C320.28252286570245,425.2915958955181,315.35821280479337,425.825460990707,310.4336216759584,421.2404746479188C305.50903054712353,416.6554883051306,300.5841583503627,406.95165052436533,295.6528215913074,399.8575504038563C290.7214848322521,392.76345028334725,285.78368351090216,388.27908782309447,280.85262781977264,383.1660452452639C275.92157212864316,378.0530026674333,270.9972620677341,372.311279972025,266.072952006825,370.2391978130382C261.1486419459159,368.16711565405143,256.22433188500685,369.7646740314861,251.3000218240978,368.67215955830005C246.37571176318872,367.57964508511395,241.45140170227964,363.7970577613069,236.520627079076,361.8262944273528C231.58985245587235,359.8555310933986,226.6526132703741,359.6965917492973,221.72183864717044,358.0275974617861C216.7910640239668,356.358603174275,211.86675396305773,353.17955394335416,206.9424439021487,348.8799841891062C202.01813384123963,344.5804144348583,197.09382378033055,339.1603241572833,192.1695137194215,335.71588868483605C187.2452036585124,332.27145321238885,182.32089359760334,330.80267254506947,177.38983790647384,330.54859038149306C172.4587822153443,330.2945082179167,167.52098089399442,331.25512455808337,162.58992520286492,330.22299519033544C157.65886951173542,329.1908658225875,152.73455945082634,326.165990746925,147.81024938991726,324.3178367337903C142.8859393290082,322.46968272065556,137.96162926809913,321.7982497700486,133.03731920719005,324.1262867674771C128.11300914628097,326.4543237649056,123.18869908537188,331.78183071036943,118.25764339424241,334.84052930729587C113.3265877031129,337.89922790422224,108.388786381763,338.6891181526111,103.45773069063351,341.5105301778888C98.52667499950401,344.33194220316665,93.60236493859493,349.18487600533336,88.67805487768585,356.8129172357917C83.75374481677679,364.44095846625004,78.82943475586771,374.844107125,73.90512469495864,377.760583025C68.98081463404957,380.677058925,64.05650457314049,376.10686206624996,59.12544888201098,369.87503059952223C54.19439319088149,363.64319913279445,49.256591869531576,355.7497330580889,44.325536178402075,350.28896131059236C39.39448048727258,344.8281895630958,34.4701704263635,341.8001121428083,29.54586036545443,340.3770315954514C24.621550304545362,338.95395104809444,19.69724024363629,339.1358673736681,14.772930182727217,339.5536035834C9.848620121818145,339.9713397931319,4.924310060909073,340.6248958870222,2.4621550304545363,340.95167393396736L0,341.2784519809125Z"><title>Other</title></path><path fill="#d62728" d="M0,341.2784519809125L2.4621550304545363,340.95167393396736C4.924310060909073,340.6248958870222,9.848620121818145,339.9713397931319,14.772930182727217,339.5536035834C19.69724024363629,339.1358673736681,24.621550304545362,338.95395104809444,29.545860365454434,340.37703159545134C34.4701704263635,341.8001121428083,39.39448048727258,344.8281895630958,44.325536178402075,350.2889613105924C49.256591869531576,355.7497330580889,54.19439319088149,363.64319913279445,59.12544888201099,369.87503059952223C64.05650457314049,376.10686206624996,68.98081463404957,380.677058925,73.90512469495864,377.76058302499996C78.82943475586771,374.844107125,83.75374481677679,364.44095846625004,88.67805487768585,356.8129172357917C93.60236493859493,349.18487600533336,98.52667499950401,344.33194220316665,103.45773069063351,341.51053017788894C108.388786381763,338.6891181526111,113.3265877031129,337.89922790422224,118.2576433942424,334.84052930729587C123.18869908537188,331.78183071036943,128.11300914628097,326.4543237649056,133.03731920719005,324.1262867674771C137.96162926809913,321.7982497700486,142.8859393290082,322.46968272065556,147.8102493899173,324.3178367337903C152.73455945082634,326.165990746925,157.65886951173542,329.1908658225875,162.58992520286492,330.22299519033544C167.52098089399442,331.25512455808337,172.4587822153443,330.2945082179167,177.38983790647384,330.54859038149306C182.32089359760334,330.80267254506947,187.2452036585124,332.27145321238885,192.16951371942147,335.71588868483605C197.09382378033055,339.1603241572833,202.01813384123963,344.5804144348583,206.9424439021487,348.7133175224396C211.86675396305773,352.8462206100208,216.7910640239668,355.6919365076083,221.72183864717047,357.3609307951195C226.6526132703741,359.0299250826306,231.58985245587235,359.52219776006524,236.52062707907598,361.65962776068613C241.45140170227964,363.7970577613069,246.37571176318872,367.57964508511395,251.3000218240978,369.3982714407653C256.22433188500685,371.21689779641673,261.1486419459159,371.07156318391253,266.072952006825,373.77540750834095C270.9972620677341,376.4792518327694,275.92157212864316,382.0322750941305,280.85262781977264,386.9351524059875C285.78368351090216,391.8380297178444,290.7214848322521,396.0907610801972,295.6528215913074,403.07795959813683C300.5841583503627,410.0651581160764,305.50903054712353,419.7868237896028,310.4336216759584,424.4072924764146C315.35821280479337,429.0277611632264,320.28252286570245,428.5470328633237,325.2068329266115,427.91553476790483C330.1311429875206,427.28403667248614,335.0554530484296,426.5017687815514,339.98650873955916,424.6233514055951C344.9175644306886,422.7449340296389,349.8553657520386,419.7703671686611,354.78642144316814,421.49919692541465C359.71747713429755,423.2280266821681,364.6417871952067,429.66025305665283,369.5660972561157,434.27510821675975C374.4904073170248,438.88996337686666,379.41471737793387,441.6874473225958,384.33902743884295,441.30475520621934C389.263337499752,440.9220630898429,394.1876475606611,437.3591949113609,399.1187032517906,433.3064417020694C404.04975894292005,429.25368849277794,408.9875602642699,424.71105025267707,413.9186159553995,419.380620658498C418.849671646529,414.0501910643188,423.77398170743805,407.93197011606156,428.69829176834713,402.37838357555165C433.6226018292562,396.8247970350417,438.5469118901653,391.8358449022792,443.4712219510743,389.8565243744333C448.39553201198333,387.8772038465875,453.31984207289247,388.9075149236583,458.250897764022,387.2506757122956C463.1819534551514,385.5938365009329,468.1197547765014,381.2498470011367,473.0508104676308,376.9922067406414C477.98186615876034,372.73456648014616,482.9061762196695,368.56327545895186,487.8304862805785,363.5435742082904C492.75479634148763,358.52387295762884,497.6791064023967,352.65576147750033,502.6031353953799,344.0778525135327C507.52716438836313,335.49994354956533,512.4509123134205,324.21223710175894,517.3816869366241,317.8568947646983C522.3124615598277,311.5015524276377,527.2502628811777,310.07857420132285,532.181599640233,305.58919627436796C537.1129363992883,301.0998183474131,542.0378085960491,293.5440407198182,546.9623997248841,288.9592174052691C551.886990853719,284.37439409072005,556.8113009146281,282.76052508921674,561.7356109755372,280.20475854312764C566.6599210364462,277.64899199703854,571.5842310973553,274.15132790636363,576.5152867884848,270.7172175937455C581.4463424796144,267.28310728112734,586.3841438009641,263.91255074656596,591.3151994920937,253.89703815824512C596.2462551832232,243.8815255699243,601.1705652441323,227.221056927844,606.0948753050413,209.90242830954534C611.0191853659504,192.58379969124667,615.9434954268595,174.6070110967296,620.8678054877686,164.28613770333126C625.7921155486777,153.96526430993293,630.7164256095867,151.30030611765335,635.6474813007162,148.20789660664195C640.5785369918457,145.11548709563056,645.5163383131957,141.59562626588738,650.4473940043251,138.47830090433877C655.3784496954546,135.36097554279016,660.3027597563637,132.64618564943612,665.2270698172728,129.55255985856766C670.1513798781818,126.45893406769919,675.0756899390909,122.98647237931624,677.5378449695455,121.25024153512477L680,119.5140106909333L680,288.78079345918337L677.5378449695455,286.26503160129147C675.0756899390909,283.74926974339957,670.1513798781818,278.7177460276159,665.2270698172728,272.4731681234565C660.3027597563637,266.22859021929725,655.3784496954546,258.77095812676237,650.4473940043251,251.4110045309554C645.5163383131957,244.05105093514848,640.5785369918457,236.78877583606945,635.6474813007163,229.04114251165024C630.7164256095867,221.29350918723108,625.7921155486777,213.06051763747178,620.8678054877686,216.20384201287845C615.9434954268595,219.34716638828513,611.0191853659504,233.8668066888578,606.0948753050413,248.2519645247537C601.1705652441323,262.6371223606496,596.2462551832232,276.8877977318687,591.3151994920937,284.27280693588403C586.3841438009641,291.6578161398993,581.4463424796144,292.17715917671075,576.5152867884848,292.88487040080105C571.5842310973553,293.5925816248914,566.6599210364462,294.48866103626074,561.7356109755372,295.09944519880816C556.8113009146281,295.7102293613555,551.886990853719,296.0357182750811,546.962399724884,299.6244178072969C542.0378085960491,303.2131173395126,537.1129363992883,310.0650274902186,532.181599640233,314.044708034604C527.2502628811777,318.02438857898943,522.3124615598277,319.1318395170543,517.3816869366241,325.1747754110441C512.4509123134205,331.21771130503384,507.52716438836313,342.1961321549486,502.6031353953799,350.52310405855496C497.6791064023967,358.8500759621614,492.75479634148763,364.52559891945947,487.83048628057855,369.1900292457181C482.9061762196695,373.8544595719768,477.98186615876034,377.5077972671961,473.0508104676308,380.8270791158538C468.1197547765014,384.1463609645114,463.1819534551514,387.1315869666075,458.250897764022,388.079213267791C453.31984207289247,389.02683956897454,448.39553201198333,387.9368661692456,443.4712219510743,389.88635553576233C438.5469118901653,391.8358449022792,433.6226018292562,396.8247970350417,428.69829176834713,402.3783835755516C423.77398170743805,407.93197011606156,418.849671646529,414.0501910643188,413.91861595539945,419.38062065849795C408.9875602642699,424.71105025267707,404.04975894292005,429.25368849277794,399.1187032517905,433.3064417020694C394.1876475606611,437.3591949113609,389.263337499752,440.9220630898429,384.33902743884295,441.3047552062194C379.41471737793387,441.6874473225958,374.4904073170248,438.88996337686666,369.5660972561157,434.2751082167597C364.6417871952067,429.66025305665283,359.71747713429755,423.2280266821681,354.7864214431681,421.49919692541454C349.8553657520386,419.7703671686611,344.9175644306886,422.7449340296389,339.98650873955916,424.6233514055952C335.0554530484296,426.5017687815514,330.1311429875206,427.28403667248614,325.2068329266115,427.91553476790483C320.28252286570245,428.5470328633237,315.35821280479337,429.0277611632264,310.4336216759584,424.4072924764146C305.50903054712353,419.7868237896028,300.5841583503627,410.0651581160764,295.6528215913074,403.07795959813683C290.7214848322521,396.0907610801972,285.78368351090216,391.8380297178444,280.85262781977264,386.9351524059875C275.92157212864316,382.0322750941305,270.9972620677341,376.4792518327694,266.072952006825,373.775407508341C261.1486419459159,371.07156318391253,256.22433188500685,371.21689779641673,251.3000218240978,369.39827144076526C246.37571176318872,367.57964508511395,241.45140170227964,363.7970577613069,236.520627079076,361.65962776068613C231.58985245587235,359.52219776006524,226.6526132703741,359.0299250826306,221.72183864717044,357.36093079511943C216.7910640239668,355.6919365076083,211.86675396305773,352.8462206100208,206.9424439021487,348.7133175224396C202.01813384123963,344.5804144348583,197.09382378033055,339.1603241572833,192.1695137194215,335.71588868483605C187.2452036585124,332.27145321238885,182.32089359760334,330.80267254506947,177.38983790647384,330.54859038149306C172.4587822153443,330.2945082179167,167.52098089399442,331.25512455808337,162.58992520286492,330.22299519033544C157.65886951173542,329.1908658225875,152.73455945082634,326.165990746925,147.81024938991726,324.3178367337903C142.8859393290082,322.46968272065556,137.96162926809913,321.7982497700486,133.03731920719005,324.1262867674771C128.11300914628097,326.4543237649056,123.18869908537188,331.78183071036943,118.25764339424241,334.84052930729587C113.3265877031129,337.89922790422224,108.388786381763,338.6891181526111,103.45773069063351,341.5105301778888C98.52667499950401,344.33194220316665,93.60236493859493,349.18487600533336,88.67805487768585,356.8129172357917C83.75374481677679,364.44095846625004,78.82943475586771,374.844107125,73.90512469495864,377.760583025C68.98081463404957,380.677058925,64.05650457314049,376.10686206624996,59.12544888201098,369.87503059952223C54.19439319088149,363.64319913279445,49.256591869531576,355.7497330580889,44.325536178402075,350.28896131059236C39.39448048727258,344.8281895630958,34.4701704263635,341.8001121428083,29.54586036545443,340.3770315954514C24.621550304545362,338.95395104809444,19.69724024363629,339.1358673736681,14.772930182727217,339.5536035834C9.848620121818145,339.9713397931319,4.924310060909073,340.6248958870222,2.4621550304545363,340.95167393396736L0,341.2784519809125Z"><title>Streaming</title></path><path fill="#8c564b" d="M0,117.72154801908754L2.4621550304545363,118.04832606603266C4.924310060909073,118.37510411297781,9.848620121818145,119.02866020686808,14.772930182727217,119.44639641660002C19.69724024363629,119.86413262633198,24.621550304545362,120.0460489519056,29.545860365454434,118.62296840454866C34.4701704263635,117.1998878571917,39.39448048727258,114.17181043690418,44.325536178402075,108.71103868940766C49.256591869531576,103.25026694191111,54.19439319088149,95.35680086720556,59.12544888201099,89.12496940047778C64.05650457314049,82.89313793375003,68.98081463404957,78.32294107500003,73.90512469495864,81.23941697500003C78.82943475586771,84.15589287500002,83.75374481677679,94.55904153375,88.67805487768585,102.18708276420834C93.60236493859493,109.81512399466665,98.52667499950401,114.66805779683331,103.45773069063351,117.4894698221111C108.388786381763,120.31088184738888,113.3265877031129,121.10077209577777,118.2576433942424,123.82613735937082C123.18869908537188,126.55150262296388,128.11300914628097,131.2123429017611,133.03731920719005,133.37371323252293C137.96162926809913,135.53508356328473,142.8859393290082,135.1969839460111,147.8102493899173,152.42026161468195C152.73455945082634,169.64353928335277,157.65886951173542,204.42819423796803,162.58992520286492,221.86597358119232C167.52098089399442,239.30375292441667,172.4587822153443,239.39465665624996,177.38983790647384,239.02744756156247C182.32089359760334,238.66023846687497,187.2452036585124,237.83491654566663,192.16951371942147,249.0908518581C197.09382378033055,260.34678717053333,202.01813384123963,283.6839797166083,206.9424439021487,299.01923376139786C211.86675396305773,314.3544878061875,216.7910640239668,321.6878033496917,221.72183864717047,327.3757565142444C226.6526132703741,333.06370967879724,231.58985245587235,337.10630046439866,236.52062707907598,341.78950738292224C241.45140170227964,346.4727143014459,246.37571176318872,351.7965373528917,251.3000218240978,356.19998169066116C256.22433188500685,360.60342602843053,261.1486419459159,364.0864916525236,266.072952006825,368.6988858122743C270.9972620677341,373.311279972025,275.92157212864316,379.0530026674333,280.85262781977264,384.1660452452639C285.78368351090216,389.27908782309447,290.7214848322521,393.76345028334725,295.6528215913074,400.8575504038563C300.5841583503627,407.95165052436533,305.50903054712353,417.6554883051306,310.4336216759584,422.2404746479188C315.35821280479337,426.825460990707,320.28252286570245,426.2915958955181,325.2068329266115,425.5795007490438C330.1311429875206,424.8674056025695,335.0554530484296,423.9770804048098,339.98650873955916,422.1328371884604C344.9175644306886,420.28859397211113,349.8553657520386,417.49043273717217,354.78642144316814,419.35893736526594C359.71747713429755,421.2274419933597,364.6417871952067,427.76261248448617,369.5660972561157,432.4354031955611C374.4904073170248,437.10819390663613,379.41471737793387,439.91860483765964,384.33902743884295,439.5789264017305C389.263337499752,439.2392479658012,394.1876475606611,435.74948016291916,399.1187032517906,431.71822817325824C404.04975894292005,427.6869761835974,408.9875602642699,423.1142400071576,413.9186159553995,417.8338129385924C418.849671646529,412.55338587002717,423.77398170743805,406.56526790933657,428.69829176834713,400.92442331580713C433.6226018292562,395.2835787222778,438.5469118901653,389.99000749590977,443.4712219510743,387.6115143672444C448.39553201198333,385.23302123857917,453.31984207289247,385.76960620761673,458.250897764022,385.34705598976234C463.1819534551514,384.92450577190795,468.1197547765014,383.5428203671617,473.0508104676308,381.02530881717894C477.98186615876034,378.5077972671961,482.9061762196695,374.8544595719768,487.8304862805785,370.1900292457181C492.75479634148763,365.52559891945947,497.6791064023967,359.8500759621614,502.6031353953799,352.5663736034082C507.52716438836313,345.282671244655,512.4509123134205,336.39078948444666,517.3816869366241,330.34785359045685C522.3124615598277,324.3049176964671,527.2502628811777,321.11092766869587,532.181599640233,317.65388309444126C537.1129363992883,314.19683852018665,542.0378085960491,310.4767393994487,546.9623997248841,308.3272607382425C551.886990853719,306.1777820770364,556.8113009146281,305.5989238753619,561.7356109755372,304.6953226438047C566.6599210364462,303.79172141224734,571.5842310973553,302.5633771508072,576.5152867884848,301.64235170366396C581.4463424796144,300.7213262565207,586.3841438009641,300.1076196236743,591.3151994920937,298.9058121305998C596.2462551832232,297.70400463752543,601.1705652441323,295.9140962842229,606.0948753050413,293.5848482504902C611.0191853659504,291.2556002167575,615.9434954268595,288.3870125025946,620.8678054877686,288.2566405088664C625.7921155486777,288.1262685151382,630.7164256095867,290.73411224184474,635.6474813007162,293.7356084961861C640.5785369918457,296.7371047505275,645.5163383131957,300.13225353250374,650.4473940043251,303.00396729958265C655.3784496954546,305.87568106666157,660.3027597563637,308.22395981884307,665.2270698172728,310.95967658370836C670.1513798781818,313.6953933485736,675.0756899390909,316.8185481261226,677.5378449695455,318.3801255148972L680,319.9417029036717L680,329.6090795113392L677.5378449695455,327.81693196808965C675.0756899390909,326.02478442484016,670.1513798781818,322.44048933834114,665.2270698172728,319.4082223557785C660.3027597563637,316.37595537321585,655.3784496954546,313.89571649458964,650.4473940043251,310.8693910383585C645.5163383131957,307.8430655821274,640.5785369918457,304.2706535482914,635.6474813007163,301.12301720516376C630.7164256095867,297.97538086203616,625.7921155486777,295.2525202096169,620.8678054877686,295.0170288521956C615.9434954268595,294.78153749477434,611.0191853659504,297.0334154323511,606.0948753050413,298.94335982718604C601.1705652441323,300.853304222021,596.2462551832232,302.42131507411403,591.3151994920937,303.3515129888278C586.3841438009641,304.2817109035415,581.4463424796144,304.574095880876,576.5152867884848,305.1960904647888C571.5842310973553,305.8180850487017,566.6599210364462,306.7696892391929,561.7356109755372,307.4262858921672C556.8113009146281,308.0828825451414,551.886990853719,308.4444716605986,546.962399724884,310.3961311683727C542.0378085960491,312.34779067614676,537.1129363992883,315.88952057623777,532.181599640233,319.2310683325779C527.2502628811777,322.57261608891804,522.3124615598277,325.71398170150735,517.3816869366241,331.6105077526516C512.4509123134205,337.5070338037958,507.52716438836313,346.158720293495,502.6031353953799,353.32005504863986C497.6791064023967,360.4813898037847,492.75479634148763,366.1523728243753,487.83048628057855,370.8254055500067C482.9061762196695,375.4984382756379,477.98186615876034,379.17352070631,473.0508104676308,381.75680217814005C468.1197547765014,384.34008364997,463.1819534551514,385.83156416295793,458.250897764022,386.33127910171373C453.31984207289247,386.8309940404695,448.39553201198333,386.338943404993,443.4712219510743,388.75406082030275C438.5469118901653,391.1691782356125,433.6226018292562,396.49146370170837,428.69829176834713,402.2117169088849C423.77398170743805,407.93197011606156,418.849671646529,414.0501910643188,413.91861595539945,419.38062065849795C408.9875602642699,424.71105025267707,404.04975894292005,429.25368849277794,399.1187032517905,433.3064417020694C394.1876475606611,437.3591949113609,389.263337499752,440.9220630898429,384.33902743884295,441.3047552062194C379.41471737793387,441.6874473225958,374.4904073170248,438.88996337686666,369.5660972561157,434.2751082167597C364.6417871952067,429.66025305665283,359.71747713429755,423.2280266821681,354.7864214431681,421.49919692541454C349.8553657520386,419.7703671686611,344.9175644306886,422.7449340296389,339.98650873955916,424.6233514055952C335.0554530484296,426.5017687815514,330.1311429875206,427.28403667248614,325.2068329266115,427.91553476790483C320.28252286570245,428.5470328633237,315.35821280479337,429.0277611632264,310.4336216759584,424.4072924764146C305.50903054712353,419.7868237896028,300.5841583503627,410.0651581160764,295.6528215913074,403.07795959813683C290.7214848322521,396.0907610801972,285.78368351090216,391.8380297178444,280.85262781977264,386.9351524059875C275.92157212864316,382.0322750941305,270.9972620677341,376.4792518327694,266.072952006825,372.53212016114657C261.1486419459159,368.5849884895236,256.22433188500685,366.243748407639,251.3000218240978,363.49841415615424C246.37571176318872,360.7530799046695,241.45140170227964,357.60365148358477,236.520627079076,356.7095088301584C231.58985245587235,355.81536617673197,226.6526132703741,357.1765092909639,221.72183864717044,356.4342228992861C216.7910640239668,355.6919365076083,211.86675396305773,352.8462206100208,206.9424439021487,341.6160303648007C202.01813384123963,330.38584011958056,197.09382378033055,310.77117552672775,192.1695137194215,304.20377532562776C187.2452036585124,297.6363751245278,182.32089359760334,304.1162393151805,177.38983790647384,309.9808117213819C172.4587822153443,315.84538412758326,167.52098089399442,321.0946647493333,162.58992520286492,307.86244271531734C157.65886951173542,294.6302206813014,152.73455945082634,262.91649599151947,147.81024938991726,249.85857837169587C142.8859393290082,236.80066075187224,137.96162926809913,242.39855020200696,133.03731920719005,247.52223854095348C128.11300914628097,252.6459268799,123.18869908537188,257.29541410765836,118.25764339424241,260.1652557438569C113.3265877031129,263.03509738005556,108.388786381763,264.12529342469446,103.45773069063351,265.0785031390695C98.52667499950401,266.0317128534445,93.60236493859493,266.8479362375556,88.67805487768585,269.1780023617639C83.75374481677679,271.5080684859722,78.82943475586771,275.35197735027776,73.90512469495864,278.20411083013886C68.98081463404957,281.05624431,64.05650457314049,282.9166024054167,59.12544888201098,282.2947482246445C54.19439319088149,281.67289404387225,49.256591869531576,278.56882758691114,44.325536178402075,276.89680461079655C39.39448048727258,275.22478163468196,34.4701704263635,274.9848021394139,29.54586036545443,274.6976618926042C24.621550304545362,274.41052164579446,19.69724024363629,274.0762206474431,14.772930182727217,274.3190864031278C9.848620121818145,274.5619521588125,4.924310060909073,275.38198466853333,2.4621550304545363,275.79200092339374L0,276.20201717825415Z"><title>Vinyl</title></path></g><g id="xAxis" transform="translate(0,460)" fill="none" font-size="10" font-family="sans-serif" text-anchor="middle"><path class="domain" stroke="currentColor" d="M0,0H680"/><g class="tick" opacity="1" transform="translate(29.545860365454434,0)"><line stroke="currentColor" y2="6"/><text fill="currentColor" y="9" dy="0.71em">1975</text></g><g class="tick" opacity="1" transform="translate(103.45098506041307,0)"><line stroke="currentColor" y2="6"/><text fill="currentColor" y="9" dy="0.71em">1980</text></g><g class="tick" opacity="1" transform="translate(177.39658353669427,0)"><line stroke="currentColor" y2="6"/><text fill="currentColor" y="9" dy="0.71em">1985</text></g><g class="tick" opacity="1" transform="translate(251.30002182409777,0)"><line stroke="currentColor" y2="6"/><text fill="currentColor" y="9" dy="0.71em">1990</text></g><g class="tick" opacity="1" transform="translate(325.2068329266115,0)"><line stroke="currentColor" y2="6"/><text fill="currentColor" y="9" dy="0.71em">1995</text></g><g class="tick" opacity="1" transform="translate(399.1119576215701,0)"><line stroke="currentColor" y2="6"/><text fill="currentColor" y="9" dy="0.71em">2000</text></g><g class="tick" opacity="1" transform="translate(473.05755609785126,0)"><line stroke="currentColor" y2="6"/><text fill="currentColor" y="9" dy="0.71em">2005</text></g><g class="tick" opacity="1" transform="translate(546.9626807928099,0)"><line stroke="currentColor" y2="6"/><text fill="currentColor" y="9" dy="0.71em">2010</text></g><g class="tick" opacity="1" transform="translate(620.8678054877686,0)"><line stroke="currentColor" y2="6"/><text fill="currentColor" y="9" dy="0.71em">2015</text></g></g><text y="456" x="680" text-anchor="end" style="font-family: Arial, sans-serif; font-size: 12px; fill: rgb(123, 123, 123); font-weight: bold;">Year</text><text x="4" text-anchor="start" dominant-baseline="hanging" style="font-family: Arial, sans-serif; font-size: 12px; fill: rgb(123, 123, 123); font-weight: bold;">Revenues in millions (Adjusted for inflation)</text><g id="labels"><text x="221.7153740848759" y="168.75600111567917" text-anchor="middle" alignment-baseline="middle" style="font-family: Arial, sans-serif; font-size: 10px; fill: black; font-weight: bold;">Tape</text><text x="384.33902743884295" y="204.2642766953" text-anchor="middle" alignment-baseline="middle" style="font-family: Arial, sans-serif; font-size: 10px; fill: black; font-weight: bold;">Disc</text><text x="576.5085411582644" y="183.32032829813124" text-anchor="middle" alignment-baseline="middle" style="font-family: Arial, sans-serif; font-size: 10px; fill: black; font-weight: bold;">Download</text><text x="458.24415213380155" y="371.5864433863462" text-anchor="middle" alignment-baseline="middle" style="font-family: Arial, sans-serif; font-size: 10px; fill: black; font-weight: bold;">Other</text><text x="680" y="204.14740207505835" text-anchor="end" alignment-baseline="middle" style="font-family: Arial, sans-serif; font-size: 10px; fill: black; font-weight: bold;">Streaming</text><text x="73.90512469495863" y="176.47431521541665" text-anchor="middle" alignment-baseline="middle" style="font-family: Arial, sans-serif; font-size: 10px; fill: black; font-weight: bold;">Vinyl</text></g></g><text x="4" y="4" style="font-family: Arial, sans-serif; font-size: 12px; fill: black; font-weight: bold; dominant-baseline: hanging;"/></g></g></svg>